<?xml version="1.0" encoding="iso-8859-1"?>
<!-- Generator: Adobe Illustrator 19.0.0, SVG Export Plug-In . SVG Version: 6.00 Build 0)  -->
<svg xmlns="http://www.w3.org/2000/svg" xmlns:xlink="http://www.w3.org/1999/xlink" version="1.1" id="Capa_1" x="0px" y="0px" viewBox="0 0 496 496" style="enable-background:new 0 0 496 496;" xml:space="preserve" width="512px" height="512px">
<g>
	<g>
		<g>
			<path d="M304,344v-17.8c65.144-23.136,112-85.224,112-158.2C416,75.36,340.632,0,248,0S80,75.36,80,168     c0,72.976,46.856,135.064,112,158.2V344c0,13.232,10.768,24,24,24v64h-56c-13.232,0-24,10.768-24,24v40h224v-40     c0-13.232-10.768-24-24-24h-56v-64C293.232,368,304,357.232,304,344z M96,168c0-83.816,68.184-152,152-152s152,68.184,152,152     s-68.184,152-152,152S96,251.816,96,168z M336,448c4.416,0,8,3.592,8,8v24H152v-24c0-4.408,3.584-8,8-8H336z M232,432v-64h32v64     H232z M216,352c-4.416,0-8-3.592-8-8v-13.016c12.848,3.16,26.192,5.016,40,5.016s27.152-1.856,40-5.016V344c0,4.408-3.584,8-8,8     H216z" fill="#000000"/>
			<path d="M324.04,280.768l-8.952-13.256C295.248,280.912,272.056,288,248,288c-66.168,0-120-53.832-120-120S181.832,48,248,48     s120,53.832,120,120c0,33.416-14.096,65.576-38.672,88.232L340.168,268C368.024,242.32,384,205.872,384,168     c0-74.992-61.008-136-136-136S112,93.008,112,168s61.008,136,136,136C275.256,304,301.552,295.968,324.04,280.768z" fill="#000000"/>
			<path d="M212.008,105.632l-8.016-13.848C176.856,107.472,160,136.68,160,168c0,19.216,6.08,37.472,17.584,52.8l12.8-9.608     C180.976,198.656,176,183.72,176,168C176,142.376,189.8,118.472,212.008,105.632z" fill="#000000"/>
			<path d="M219.192,234.008c-5.096-2.224-9.936-5.048-14.392-8.4l-9.608,12.792c5.448,4.096,11.368,7.552,17.592,10.272     L219.192,234.008z" fill="#000000"/>
		</g>
	</g>
</g>
<g>
</g>
<g>
</g>
<g>
</g>
<g>
</g>
<g>
</g>
<g>
</g>
<g>
</g>
<g>
</g>
<g>
</g>
<g>
</g>
<g>
</g>
<g>
</g>
<g>
</g>
<g>
</g>
<g>
</g>
</svg>
