<?xml version="1.0" encoding="iso-8859-1"?>
<!-- Generator: Adobe Illustrator 19.0.0, SVG Export Plug-In . SVG Version: 6.00 Build 0)  -->
<svg xmlns="http://www.w3.org/2000/svg" xmlns:xlink="http://www.w3.org/1999/xlink" version="1.1" id="Capa_1" x="0px" y="0px" viewBox="0 0 496 496" style="enable-background:new 0 0 496 496;" xml:space="preserve" width="512px" height="512px">
<g>
	<g>
		<g>
			<path d="M440,192h-48c-2.816,0-5.488,0.576-8,1.472V72c0-13.232-10.768-24-24-24h-33.472c0.896-2.512,1.472-5.184,1.472-8V24     c0-13.232-10.768-24-24-24H192c-13.232,0-24,10.768-24,24v16c0,2.816,0.576,5.488,1.472,8H136c-13.232,0-24,10.768-24,24v121.472     c-2.512-0.896-5.184-1.472-8-1.472H56c-13.232,0-24,10.768-24,24c0,10.416,6.712,19.216,16,22.528V280     c0,19.568,14.144,35.832,32.736,39.264C84.168,337.856,100.432,352,120,352h88v48h-13.768l-16,48H136c-13.232,0-24,10.768-24,24     v24h272v-24c0-13.232-10.768-24-24-24h-42.232l-16-48H288v-48h88c19.568,0,35.832-14.144,39.264-32.736     C433.856,315.832,448,299.568,448,280v-41.472c9.288-3.312,16-12.112,16-22.528C464,202.768,453.232,192,440,192z M184,24     c0-4.408,3.592-8,8-8h112c4.408,0,8,3.592,8,8v16c0,4.408-3.592,8-8,8h-16h-80h-16c-4.408,0-8-3.592-8-8V24z M280,64v8     c0,4.408-3.592,8-8,8h-48c-4.408,0-8-3.592-8-8v-8H280z M128,72c0-4.408,3.592-8,8-8h56h8v8c0,13.232,10.768,24,24,24h48     c13.232,0,24-10.768,24-24v-8h8h56c4.408,0,8,3.592,8,8v184H128V72z M80,256v8v38.528c-9.288-3.312-16-12.112-16-22.528v-40h16     V256z M56,224c-4.408,0-8-3.592-8-8s3.592-8,8-8h48c4.408,0,8,3.592,8,8s-3.592,8-8,8H56z M112,238.528V256H96v-16h8     C106.816,240,109.488,239.424,112,238.528z M290.232,416l10.664,32H288v16h72c4.408,0,8,3.592,8,8v8H128v-8c0-4.408,3.592-8,8-8     h136v-16h-76.896l10.664-32H240v-16h-16v-48h48v48h-16v16H290.232z M400,312c0,13.232-10.768,24-24,24H120     c-13.232,0-24-10.768-24-24v-40h304V312z M400,256h-16v-17.472c2.512,0.896,5.184,1.472,8,1.472h8V256z M432,280     c0,10.416-6.712,19.216-16,22.528V264v-8v-16h16V280z M440,224h-48c-4.408,0-8-3.592-8-8s3.592-8,8-8h48c4.408,0,8,3.592,8,8     S444.408,224,440,224z" fill="#000000"/>
			<path d="M320,112H176c-17.648,0-32,14.352-32,32s14.352,32,32,32h144c17.648,0,32-14.352,32-32S337.648,112,320,112z M320,160     H176c-8.824,0-16-7.176-16-16c0-8.824,7.176-16,16-16h144c8.824,0,16,7.176,16,16C336,152.824,328.824,160,320,160z" fill="#000000"/>
		</g>
	</g>
</g>
<g>
</g>
<g>
</g>
<g>
</g>
<g>
</g>
<g>
</g>
<g>
</g>
<g>
</g>
<g>
</g>
<g>
</g>
<g>
</g>
<g>
</g>
<g>
</g>
<g>
</g>
<g>
</g>
<g>
</g>
</svg>
