<?xml version="1.0" encoding="iso-8859-1"?>
<!-- Generator: Adobe Illustrator 19.0.0, SVG Export Plug-In . SVG Version: 6.00 Build 0)  -->
<svg xmlns="http://www.w3.org/2000/svg" xmlns:xlink="http://www.w3.org/1999/xlink" version="1.1" id="Capa_1" x="0px" y="0px" viewBox="0 0 496 496" style="enable-background:new 0 0 496 496;" xml:space="preserve" width="512px" height="512px">
<g>
	<g>
		<g>
			<path d="M151.992,320c-13.232,0-24,10.768-24,24s10.768,24,24,24s24-10.768,24-24S165.224,320,151.992,320z M151.992,352     c-4.416,0-8-3.592-8-8c0-4.408,3.584-8,8-8s8,3.592,8,8C159.992,348.408,156.408,352,151.992,352z" fill="#000000"/>
			<path d="M215.792,0c-20.744,0-38.344,16.192-40.064,36.864l-20.936,251.28c-0.936-0.048-1.856-0.144-2.8-0.144     c-0.944,0-1.864,0.096-2.792,0.144l-20.936-251.28C126.536,16.192,108.936,0,88.192,0C77.12,0,66.424,4.632,58.856,12.712     c-7.568,8.08-11.496,19.056-10.76,30.296l26.92,301.832c1.816,20.344,17.296,35.968,36.976,38.616V472c0,13.232,10.768,24,24,24     h32c13.232,0,24-10.768,24-24v-88.544c19.68-2.648,35.16-18.28,36.976-38.616l26.936-302.016     c0.72-11.048-3.208-22.016-10.784-30.104C237.544,4.632,226.856,0,215.792,0z M64.048,41.776     c-0.448-6.752,1.856-13.184,6.48-18.12C75.16,18.72,81.432,16,88.192,16c12.496,0,23.088,9.744,24.128,22.192l2.2,26.432     l-47.904,5.984L64.048,41.776z M98.208,359.456c-3.992-4.256-6.696-9.768-7.256-16.04L68.04,86.552l47.808-5.976L133.4,291.232     C111.648,298.928,95.992,319.64,95.992,344C95.992,349.368,96.792,354.536,98.208,359.456z M175.992,416h-34.168v16h34.168v16     h-34.168v16h34.168v8c0,4.408-3.584,8-8,8h-32c-4.416,0-8-3.592-8-8v-77.48c7.288,3.472,15.408,5.48,24,5.48     s16.712-2.008,24-5.48V416z M151.992,384c-22.056,0-40-17.944-40-40c0-22.056,17.944-40,40-40c22.056,0,40,17.944,40,40     C191.992,366.056,174.048,384,151.992,384z M213.032,343.416c-0.56,6.28-3.264,11.784-7.256,16.04     c1.416-4.92,2.216-10.088,2.216-15.456c0-24.36-15.656-45.072-37.416-52.76l17.552-210.656l47.808,5.976L213.032,343.416z      M239.952,41.592l-2.592,29.024l-47.904-5.984l2.2-26.432c1.048-12.456,11.64-22.2,24.136-22.2c6.768,0,13.04,2.72,17.664,7.656     C238.08,28.592,240.384,35.032,239.952,41.592z" fill="#000000"/>
			<path d="M351.992,304c-22.056,0-40,17.944-40,40c0,22.056,17.944,40,40,40c22.056,0,40-17.944,40-40     C391.992,321.944,374.048,304,351.992,304z M351.992,368c-13.232,0-24-10.768-24-24s10.768-24,24-24s24,10.768,24,24     S365.224,368,351.992,368z" fill="#000000"/>
			<path d="M407.992,248.72V176v-40V56c0-30.88-25.128-56-56-56s-56,25.12-56,56v242.848c-9.984,12.36-16,28.064-16,45.152     c0,24.904,12.72,46.896,32,59.824V472c0,13.232,10.768,24,24,24h32c13.232,0,24-10.768,24-24v-68.176     c17.456-11.712,29.52-30.848,31.648-52.848C437.584,347.52,447.992,335,447.992,320v-24     C447.992,272.264,430.656,252.552,407.992,248.72z M311.992,56c0-22.056,17.944-40,40-40c22.056,0,40,17.944,40,40v8h-80V56z      M311.992,80h80v24.208c-6.704-5.08-14.96-8.208-24-8.208c-22.056,0-40,17.944-40,40v104h16V136c0-13.232,10.768-24,24-24     s24,10.768,24,24v40v108.176c-11.448-7.68-25.208-12.176-40-12.176c-2.704,0-5.368,0.176-8,0.472V256h-16v20.2     c-5.688,2.016-11.072,4.664-16,7.976V80z M375.992,448h-32v16h32v8c0,4.408-3.584,8-8,8h-32c-4.416,0-8-3.592-8-8v-60.2     c7.52,2.672,15.576,4.2,24,4.2s16.48-1.528,24-4.2V448z M351.992,400c-30.872,0-56-25.12-56-56s25.128-56,56-56s56,25.12,56,56     S382.864,400,351.992,400z M431.992,320c0,6.2-3.584,11.528-8.752,14.184c-1.824-13.264-7.216-25.392-15.248-35.336v-33.712     c13.768,3.576,24,16,24,30.864V320z" fill="#000000"/>
		</g>
	</g>
</g>
<g>
</g>
<g>
</g>
<g>
</g>
<g>
</g>
<g>
</g>
<g>
</g>
<g>
</g>
<g>
</g>
<g>
</g>
<g>
</g>
<g>
</g>
<g>
</g>
<g>
</g>
<g>
</g>
<g>
</g>
</svg>
