<?xml version="1.0" encoding="iso-8859-1"?>
<!-- Generator: Adobe Illustrator 19.0.0, SVG Export Plug-In . SVG Version: 6.00 Build 0)  -->
<svg xmlns="http://www.w3.org/2000/svg" xmlns:xlink="http://www.w3.org/1999/xlink" version="1.1" id="Layer_1" x="0px" y="0px" viewBox="0 0 496 496" style="enable-background:new 0 0 496 496;" xml:space="preserve" width="512px" height="512px">
<g>
	<g>
		<g>
			<path d="M128,256v-8V128h48v-16h-48V80v-8V0h-16v26.84C98.792,10.496,78.608,0,56,0H0v8c0,39.704,32.296,72,72,72h40v32H96v16h16     v74.84C98.792,186.496,78.608,176,56,176H0v8c0,39.704,32.296,72,72,72h40v80H96v16h16v58.84C98.792,394.496,78.608,384,56,384H0     v8c0,39.704,32.296,72,72,72h40v32h16v-32v-8V352h48v-16h-48V256z M72,64c-28.168,0-51.536-20.896-55.432-48H56     c28.16,0,51.536,20.896,55.432,48H72z M72,240c-28.168,0-51.536-20.896-55.432-48H56c28.16,0,51.536,20.896,55.432,48H72z      M72,448c-28.168,0-51.536-20.896-55.432-48H56c28.16,0,51.536,20.896,55.432,48H72z" fill="#000000"/>
			<path d="M288,0h-16v144.472c-19.336,2.152-36.376,11.976-48,26.368V128h16v-16h-16V0h-16v112h-16v16h16v88v8v112h-16v16h16v88v8     v48h16v-48h40c2.704,0,5.368-0.176,8-0.472V496h16v-52.2c27.92-9.912,48-36.52,48-67.8v-8h-48V256h48v-16h-48v-20.2     c27.92-9.912,48-36.52,48-67.8v-8h-48V0z M224,352h16v-16h-16V224h40c2.704,0,5.368-0.176,8-0.472V240h-16v16h16v112.472     c-19.336,2.152-36.376,11.976-48,26.368V352z M319.432,384c-3.896,27.104-27.272,48-55.432,48h-39.432     c3.888-27.104,27.264-48,55.432-48H319.432z M319.432,160c-3.896,27.104-27.272,48-55.432,48h-39.432     c3.888-27.104,27.264-48,55.432-48H319.432z" fill="#000000"/>
			<path d="M424,168c39.704,0,72-32.296,72-72v-8h-56c-22.608,0-42.792,10.496-56,26.84V0h-16v160v8v72h-16v16h16v144v8v88h16v-88     h40c39.704,0,72-32.296,72-72v-8h-56c-22.608,0-42.792,10.496-56,26.84V256h16v-16h-16v-72H424z M440,104h39.432     c-3.888,27.104-27.264,48-55.432,48h-39.432C388.464,124.896,411.832,104,440,104z M440,344h39.432     c-3.888,27.104-27.264,48-55.432,48h-39.432C388.464,364.896,411.832,344,440,344z" fill="#000000"/>
			<rect x="176" y="144" width="16" height="144" fill="#000000"/>
			<rect x="176" y="304" width="16" height="16" fill="#000000"/>
		</g>
	</g>
</g>
<g>
</g>
<g>
</g>
<g>
</g>
<g>
</g>
<g>
</g>
<g>
</g>
<g>
</g>
<g>
</g>
<g>
</g>
<g>
</g>
<g>
</g>
<g>
</g>
<g>
</g>
<g>
</g>
<g>
</g>
</svg>
